<?xml version="1.0" encoding="utf-8"?>
<!-- Generator: Adobe Illustrator 17.0.0, SVG Export Plug-In . SVG Version: 6.00 Build 0)  -->
<!DOCTYPE svg PUBLIC "-//W3C//DTD SVG 1.1//EN" "http://www.w3.org/Graphics/SVG/1.1/DTD/svg11.dtd">
<svg version="1.1" id="Layer_1" xmlns="http://www.w3.org/2000/svg" xmlns:xlink="http://www.w3.org/1999/xlink" x="0px" y="0px"
	 width="1000px" height="1000px" viewBox="0 0 1000 1000" enable-background="new 0 0 1000 1000" xml:space="preserve">
<path fill="#800000018000000180000001" d="M893.821,621.362c-5.134-33.607-27.539-64.633-52.143-86.987
	c-17.454-15.859-37.275-28.995-58.472-39.341c-1.859-11.313-9.905-21.633-21.547-24.314
	c-108.646-25.022-222.81-31.708-333.757-21.521c-105.145,9.654-216.871,33.229-298.284,105.128
	c-14.215,12.554-26.983,27.423-36.69,43.735c-9.602,16.136-14.768,33.231-17.033,51.708c-3.94,32.147,11.226,64.317,33.562,86.644
	c26.505,26.495,63.38,41.725,99.462,49.612c36.992,8.086,74.345,8.341,111.963,7.759c74.22-1.149,148.44-3.016,222.611-5.972
	c39.049-1.556,78.096-3.415,117.082-6.146c30.312-2.123,60.83-4.491,90.796-9.692c17.363-3.014,34.481-8.231,50.759-14.933
	c21.384-8.804,41.099-19.568,58.178-35.413c13.992-12.982,24.143-29.221,30.46-47.142
	C896.839,657.257,896.535,639.129,893.821,621.362z M160.659,701.819c-0.112-0.09-0.22-0.184-0.332-0.274
	C165.068,705.148,162.28,703.115,160.659,701.819z M816.469,680.499c-1.205,1.098-2.448,2.153-3.7,3.197
	c-0.033,0.028-0.068,0.054-0.102,0.082c-2.975,2.17-6.058,4.189-9.193,6.118c-6.335,3.898-12.987,7.264-19.781,10.289
	c-18.734,7.48-38.193,12.487-58.107,15.468c-29.852,3.82-59.956,5.813-89.98,7.641c-40.252,2.45-80.549,4.159-120.848,5.604
	c-70.213,2.517-140.464,4.191-210.716,5.13c-20.172,0.27-40.243-0.062-60.279-2.444c-18.985-2.835-37.731-7.372-55.599-14.419
	c-6.493-2.896-12.823-6.123-18.917-9.797c-3.261-1.966-6.425-4.088-9.513-6.313c-1.225-1.007-2.432-2.036-3.619-3.087
	c-2.465-2.184-4.81-4.501-7.065-6.901c-1.095-1.165-2.148-2.368-3.185-3.584c-0.07-0.082-0.136-0.167-0.205-0.249
	c-2.641-3.72-4.963-7.66-6.951-11.764c-1.314-3.649-2.35-7.381-3.092-11.187c-0.295-3.93-0.281-7.866,0.029-11.794
	c0.956-5.049,2.366-9.984,4.163-14.799c1.5-3.186,3.143-6.3,4.924-9.345c1.386-2.37,2.88-4.675,4.419-6.949
	c0.711-1.05,2.293-3.165,3.376-4.61c7.416-8.987,15.874-17.101,24.795-24.575c1.217-1.02,2.453-2.018,3.69-3.013
	c0.056-0.045,0.1-0.081,0.153-0.124c2.899-2.182,5.851-4.292,8.832-6.359c6.697-4.645,13.617-8.965,20.646-13.086
	c14.636-8.581,29.907-16.049,45.462-22.81c43.676-17.964,91.058-27.349,137.731-33.824c89.785-11.625,181.463-10.766,271.209,0.873
	c2.099,0.291,4.197,0.583,6.294,0.887c0.007,0.012,0.013,0.024,0.019,0.035c3.532,6.029,10.681,12.717,17.929,13.787
	c19.674,2.904,38.927,8.063,57.377,15.456c10.174,4.506,20.026,9.674,29.483,15.549c4.919,3.057,9.693,6.343,14.349,9.786
	c0.608,0.489,1.219,0.973,1.822,1.466c2.36,1.929,4.66,3.93,6.927,5.968c4.159,3.738,8.12,7.692,11.912,11.8
	c1.733,1.877,3.406,3.807,5.05,5.762c0.488,0.58,0.96,1.172,1.437,1.761c5.067,6.886,9.49,14.249,13.104,21.996
	c2.102,5.547,3.744,11.243,4.828,17.075c0.362,4.336,0.389,8.681,0.056,13.02c-0.743,3.838-1.778,7.602-3.097,11.284
	c-1.916,3.93-4.143,7.687-6.652,11.284c-0.698,0.824-1.407,1.64-2.128,2.444C821.469,675.786,819.006,678.186,816.469,680.499z"/>
</svg>
