<?xml version="1.0" encoding="utf-8"?>
<!-- Generator: Adobe Illustrator 17.0.0, SVG Export Plug-In . SVG Version: 6.00 Build 0)  -->
<!DOCTYPE svg PUBLIC "-//W3C//DTD SVG 1.1//EN" "http://www.w3.org/Graphics/SVG/1.1/DTD/svg11.dtd">
<svg version="1.1" id="Layer_1" xmlns="http://www.w3.org/2000/svg" xmlns:xlink="http://www.w3.org/1999/xlink" x="0px" y="0px"
	 width="1000px" height="1000px" viewBox="0 0 1000 1000" enable-background="new 0 0 1000 1000" xml:space="preserve">
<path fill="#800000018000000180000001" d="M881.085,619.248c-37.694,0.241-71.659,20.839-108.337,27.065
	c-5.096,0.5-10.209,0.646-15.312,0.275c-2.297-0.471-4.558-1.073-6.782-1.811c-1.628-0.842-3.21-1.765-4.751-2.77
	c-1.268-1.13-2.47-2.333-3.635-3.568c-0.384-0.407-0.883-0.992-1.378-1.591c-0.623-0.923-1.228-1.858-1.819-2.801
	c-1.798-2.868-3.363-5.874-4.793-8.942c-2.506-6.579-4.469-13.333-6.082-20.196c-3.445-14.653-22.081-26.835-36.904-20.953
	c-36.437,14.458-74.86,22.561-113.277,30.074c-1.111-4.739-2.187-9.491-3.042-14.298c-0.135-1.67-0.225-3.342-0.252-5.029
	c-0.215-13.639-9.047-24.994-22.025-28.928c-35.506-10.764-73.422-8.493-104.998,10.318c0.027-2.678-0.362-5.273-1.321-7.546
	c-6.836-16.205-15.435-30.26-27.787-43.003c-10.887-11.232-24.025-20.736-37.647-28.377c-30.572-17.149-64.645-25.654-99.265-29.291
	c-33.129-3.481-67.821-0.589-99.785,8.837c-31.978,9.431-63.4,26.468-85.28,52.078c-25.452,29.79-37.681,67.483-36.826,106.588
	c0.503,22.972,6.762,45.72,18.396,65.549c11.378,19.394,27.715,34.893,46.109,47.53c35.699,24.525,81.814,34.533,124.599,34.003
	c22.606-0.28,45.639-3.691,67.277-10.272c21.678-6.593,39.945-17.689,57.283-32.046c23.248-19.252,40.865-44.281,59.562-67.707
	c8.934-11.194,18.201-22.171,28.611-32.032c2.544-2.409,5.179-4.72,7.876-6.956c0.062-0.051,0.124-0.1,0.186-0.151
	c0.904-0.654,1.815-1.3,2.734-1.934c4.418-3.048,9.08-5.726,13.925-8.026c4.786-1.761,9.69-3.106,14.702-4.035
	c5.676-0.479,11.358-0.438,17.031,0.04c1.824,8.279,3.993,16.493,5.484,24.878c0.135,1.67,0.225,3.342,0.252,5.029
	c0.126,7.982,3.114,15.54,8.787,21.213c7.978,7.978,18.472,9.854,29.188,7.715c39.68-7.918,79.964-14.737,118.631-26.888
	c5.532,12.296,12.889,23.713,22.716,32.849c15.971,14.846,36.162,21.916,57.751,22.662c33.822,1.168,65.783-13.703,97.518-23.068
	c5.726-1.69,11.523-3.185,17.403-4.232c1.755-0.147,3.512-0.241,5.278-0.252c16.352-0.104,30-13.567,30-30
	C911.085,632.974,897.44,619.144,881.085,619.248z M135.398,678.841C138.568,682.865,136.613,680.475,135.398,678.841
	L135.398,678.841z M364.015,663.489c-9.005,10.931-18.521,21.473-29.113,30.896c-1.791,1.593-3.634,3.126-5.496,4.636
	c-0.43,0.324-0.843,0.632-1.172,0.87c-1.651,1.192-3.339,2.329-5.041,3.447c-4.957,3.255-10.171,6.098-15.552,8.584
	c-11.729,4.436-24.277,7.208-36.671,9.087c-16.683,1.901-33.512,1.925-50.197,0.065c-14.601-2.25-28.926-5.966-42.672-11.378
	c-6.17-2.792-12.174-5.911-17.962-9.444c-3.145-1.919-6.192-3.994-9.173-6.158c-1.648-1.345-3.247-2.749-4.825-4.174
	c-2.645-2.389-5.153-4.927-7.572-7.544c-1.202-1.3-2.355-2.644-3.495-3.999c-0.036-0.043-0.071-0.089-0.107-0.132
	c-3.717-5.132-6.901-10.633-9.596-16.364c-2.263-6.066-3.944-12.302-5.072-18.675c-0.857-9.261-0.596-18.596,0.393-27.846
	c1.369-8.286,3.495-16.405,6.47-24.258c2.9-6.233,6.323-12.19,10.273-17.834c0.214-0.306,0.437-0.605,0.656-0.908
	c0.861-1.039,1.734-2.067,2.625-3.08c2.633-2.993,5.447-5.822,8.361-8.54c1.46-1.362,2.967-2.675,4.49-3.966
	c0.464-0.393,0.936-0.777,1.407-1.162c2.556-1.859,5.181-3.621,7.851-5.312c6.155-3.899,12.626-7.284,19.268-10.275
	c14.359-5.668,29.362-9.506,44.617-11.849c19.506-2.254,39.232-2.154,58.733,0.125c17.27,2.621,34.269,6.977,50.522,13.394
	c6.533,2.906,12.909,6.14,19.058,9.801c3.309,1.969,6.529,4.084,9.677,6.299c0.472,0.332,1.105,0.797,1.741,1.269
	c0.776,0.64,1.546,1.288,2.309,1.943c2.771,2.376,5.413,4.898,7.952,7.518c1.248,1.288,2.452,2.619,3.635,3.967
	c0.444,0.505,1.049,1.24,1.64,1.97c3.656,5.166,6.768,10.709,9.279,16.519c-0.907-2.15-1.815-4.301-2.722-6.451
	c3.197,7.575,6.369,13.559,13.773,17.897c2.875,1.684,6.012,2.849,9.25,3.495c-5.246,5.387-10.281,11.013-15.165,16.926
	C385.36,636.201,375.03,650.119,364.015,663.489z M744.228,640.877C742.844,639.872,741.609,638.854,744.228,640.877
	L744.228,640.877z"/>
</svg>
