<?xml version="1.0" encoding="utf-8"?>
<!-- Generator: Adobe Illustrator 17.0.0, SVG Export Plug-In . SVG Version: 6.00 Build 0)  -->
<!DOCTYPE svg PUBLIC "-//W3C//DTD SVG 1.1//EN" "http://www.w3.org/Graphics/SVG/1.1/DTD/svg11.dtd">
<svg version="1.1" id="Layer_1" xmlns="http://www.w3.org/2000/svg" xmlns:xlink="http://www.w3.org/1999/xlink" x="0px" y="0px"
	 width="1000px" height="1000px" viewBox="0 0 1000 1000" enable-background="new 0 0 1000 1000" xml:space="preserve">
<path fill="#800000018000000180000001" d="M219.851,715.975c0.71-5.126,2.171-10.076,4.151-14.851
	c-1.008,2.389-2.016,4.778-3.024,7.166c1.924-4.538,4.281-8.857,6.93-13.01c1.374-2.153,2.846-4.243,4.363-6.298
	c3.798-5.143-5.185,6.581-1.849,2.385c0.995-1.251,2.02-2.477,3.055-3.694c8.277-9.731,17.756-18.414,27.604-26.523
	c1.305-1.075,2.624-2.134,3.946-3.188c0.671-0.535,1.346-1.064,2.02-1.593c3.428-2.689-6.797,5.233-3.33,2.567
	c3.056-2.349,6.158-4.638,9.283-6.894c6.332-4.573,12.805-8.949,19.354-13.204c14.266-9.268,28.973-17.849,43.892-26.019
	c34.291-18.781,69.834-35.259,105.834-50.474c-2.389,1.008-4.778,2.016-7.166,3.024c70.251-29.626,142.624-54.763,216.242-74.625
	c32.129-8.668,64.712-16.584,97.722-21.071c-2.658,0.357-5.317,0.714-7.975,1.072c6.395-0.858,12.811-1.564,19.251-1.976
	c16.313-1.043,30-12.857,30-30c0-15.564-13.663-31.044-30-30c-26.47,1.692-52.845,6.836-78.687,12.629
	c-32.798,7.352-65.219,16.389-97.345,26.244c-76.653,23.513-152.114,52.004-224.638,86.236
	c-32.282,15.237-64.024,31.852-94.144,51.049c-25.557,16.289-51.081,34.577-71.505,57.149c-14.434,15.951-28.807,36.052-31.84,57.95
	c-1.165,8.407-1.457,15.467,3.024,23.117c3.928,6.706,10.43,11.724,17.929,13.787c7.743,2.13,16.188,1.034,23.117-3.024
	C212.045,730.401,218.85,723.201,219.851,715.975L219.851,715.975z"/>
<path fill="#800000018000000180000001" d="M452.462,622.615c28.122-2.737,56.49-1.446,84.46,2.276
	c-2.658-0.357-5.317-0.714-7.975-1.072c38.32,5.239,76.148,15.027,111.843,29.992c-2.389-1.008-4.778-2.016-7.166-3.024
	c14.557,6.174,28.719,13.232,42.158,21.579c13.903,8.634,32.953,3.053,41.046-10.763c8.431-14.393,3.103-32.435-10.763-41.046
	c-36.434-22.627-78.197-37.459-119.84-47.075c-43.418-10.026-89.268-15.198-133.763-10.867c-8.237,0.802-15.172,2.746-21.213,8.787
	c-5.601,5.601-8.787,13.288-8.787,21.213C422.462,607.768,436.156,624.203,452.462,622.615L452.462,622.615z"/>
</svg>
