<?xml version="1.0" encoding="utf-8"?>
<!-- Generator: Adobe Illustrator 17.0.0, SVG Export Plug-In . SVG Version: 6.00 Build 0)  -->
<!DOCTYPE svg PUBLIC "-//W3C//DTD SVG 1.1//EN" "http://www.w3.org/Graphics/SVG/1.1/DTD/svg11.dtd">
<svg version="1.1" id="Layer_1" xmlns="http://www.w3.org/2000/svg" xmlns:xlink="http://www.w3.org/1999/xlink" x="0px" y="0px"
	 width="1000px" height="1000px" viewBox="0 0 1000 1000" enable-background="new 0 0 1000 1000" xml:space="preserve">
<path fill="#800000018000000180000001" d="M26.448,621.344c39.031,39.81,81.732,78.041,130.561,105.489
	c36.507,20.522,76.892,33.941,118.977,35.009c78.946,2.002,150.643-41.649,214.861-82.529
	c27.363-17.418,54.431-35.293,81.861-52.607c15.041-9.494,30.191-18.814,45.483-27.898c10.183-6.049,20.257-12.432,31.193-17.051
	c-2.389,1.008-4.778,2.016-7.166,3.024c23.296-9.726,48.594-14.782,73.515-18.143c-2.658,0.357-5.317,0.714-7.975,1.072
	c35.953-4.773,72.672-5.476,108.665-0.719c-2.658-0.357-5.317-0.714-7.975-1.072c21.492,2.904,42.804,7.827,62.863,16.191
	c-2.389-1.008-4.778-2.016-7.166-3.024c7.078,2.991,13.956,6.406,20.556,10.346c3.076,1.836,6.064,3.816,8.983,5.892
	c0.666,0.474,1.323,0.96,1.979,1.447c4.59,3.401-6.193-4.858-2.854-2.206c1.476,1.172,2.911,2.394,4.327,3.637
	c2.608,2.288,5.083,4.723,7.459,7.25c1.272,1.354,2.492,2.756,3.689,4.177c0.512,0.608,1.01,1.229,1.508,1.85
	c2.651,3.306-5.627-7.451-2.279-2.908c4.304,5.839,7.858,12.205,10.724,18.862c-1.008-2.389-2.016-4.778-3.024-7.166
	c3.56,8.469,5.885,17.334,7.142,26.429c-0.357-2.658-0.714-5.317-1.072-7.975c1.381,10.618,1.496,21.529,0.121,32.155
	c0.357-2.658,0.714-5.317,1.072-7.975c-1.224,8.859-3.385,17.519-6.828,25.784c1.008-2.389,2.016-4.778,3.024-7.166
	c-2.147,5.009-4.726,9.779-7.782,14.293c-1.517,2.24-5.464,7.255,1.751-2.06c-0.839,1.083-1.723,2.13-2.617,3.167
	c-1.778,2.062-3.694,4.001-5.672,5.868c-2.367,2.234-10.975,8.797-0.807,1.074c-2.186,1.66-4.471,3.187-6.797,4.643
	c-4.769,2.987-9.828,5.493-15.001,7.694c2.389-1.008,4.778-2.016,7.166-3.024c-14.068,5.87-29.008,9.208-44.078,11.236
	c2.658-0.357,5.317-0.714,7.975-1.072c-33.61,4.389-67.771,2.64-101.446-0.041c-29.944-2.384-59.897-6.433-89.958-6.975
	c-7.251-0.131-14.544,0.015-21.741,0.97c-8.321,1.105-15.019,2.592-21.213,8.787c-5.601,5.601-8.787,13.288-8.787,21.213
	c0,7.925,3.186,15.612,8.787,21.213c4.995,4.995,13.841,9.766,21.213,8.787c25.628-3.403,52.521,0.651,78.068,3.023
	c33.727,3.132,67.561,6.294,101.473,5.507c35.382-0.822,72.058-5.76,103.515-22.984c16.233-8.889,29.498-21.615,39.979-36.743
	c11.589-16.728,16.275-36.429,18.84-56.249c2.28-17.617,0.388-36.662-4.321-53.706c-4.953-17.926-13.972-33.332-25.496-47.705
	c-20.302-25.322-51.603-40.944-81.946-50.553c-32.134-10.175-66.746-13.779-100.339-14.067c-32.672-0.28-65.653,3.119-97.646,9.704
	c-12.201,2.511-24.3,5.656-36.061,9.776c-15.623,5.474-29.535,12.932-43.752,21.302c-41.634,24.51-81.927,51.156-122.567,77.253
	c-36.337,23.334-73.21,46.656-113.064,63.589c2.389-1.008,4.778-2.016,7.166-3.024c-21.082,8.883-43.016,15.746-65.731,18.831
	c2.658-0.357,5.317-0.714,7.975-1.072c-16.948,2.217-34.048,2.25-50.992-0.026c2.658,0.357,5.317,0.714,7.975,1.072
	c-18.502-2.588-36.446-7.849-53.674-15.029c2.389,1.008,4.778,2.016,7.166,3.024c-25.492-10.763-49.087-25.427-71.285-41.859
	c-1.227-0.909-2.446-1.829-3.665-2.749c-6.322-4.772,4.052,3.177-0.087-0.047c-3.364-2.62-6.685-5.295-9.987-7.992
	c-6.964-5.687-13.774-11.563-20.492-17.538c-14.439-12.843-28.311-26.316-41.837-40.113c-11.445-11.673-30.954-11.473-42.426,0
	C14.805,590.561,15.006,609.673,26.448,621.344L26.448,621.344z"/>
</svg>
