<?xml version="1.0" encoding="utf-8"?>
<!-- Generator: Adobe Illustrator 17.0.0, SVG Export Plug-In . SVG Version: 6.00 Build 0)  -->
<!DOCTYPE svg PUBLIC "-//W3C//DTD SVG 1.1//EN" "http://www.w3.org/Graphics/SVG/1.1/DTD/svg11.dtd">
<svg version="1.1" id="Layer_1" xmlns="http://www.w3.org/2000/svg" xmlns:xlink="http://www.w3.org/1999/xlink" x="0px" y="0px"
	 width="1000px" height="1000px" viewBox="0 0 1000 1000" enable-background="new 0 0 1000 1000" xml:space="preserve">
<path fill="#800000018000000180000001" d="M311,839c58.061-0.069,115.868-6.717,173.624-11.898
	c56.414-5.061,113.52-9.409,170.054-3.661c4.218,0.429,8.426,0.944,12.628,1.502c-2.658-0.357-5.317-0.714-7.975-1.072
	c12.299,1.686,24.498,3.934,36.551,6.914c15.863,3.922,32.485-4.889,36.904-20.953c4.249-15.446-5.083-32.98-20.953-36.904
	c-55.217-13.652-112.919-13.657-169.35-10.3c-58.6,3.486-116.889,10.882-175.481,14.492c-18.645,1.149-37.319,1.858-56.001,1.88
	c-16.353,0.019-30,13.632-30,30C281,825.339,294.646,839.019,311,839L311,839z"/>
<path fill="#800000018000000180000001" d="M390.404,730.786c13.65-2.469,27.357-4.598,41.104-6.446
	c-2.658,0.357-5.317,0.714-7.975,1.072c64.32-8.54,130.921-12.702,195.462-4.107c-2.658-0.357-5.317-0.714-7.975-1.072
	c6.892,0.944,13.752,2.062,20.577,3.411c16.028,3.166,32.332-4.332,36.904-20.953c4.092-14.876-4.902-33.732-20.953-36.904
	c-43.693-8.632-88.642-9.903-133.03-8.247c-46.913,1.75-93.873,7.036-140.063,15.39c-16.106,2.913-24.992,22.222-20.953,36.904
	c2.063,7.499,7.081,14.001,13.787,17.929C374.715,732.112,382.188,732.271,390.404,730.786L390.404,730.786z"/>
<path fill="#800000018000000180000001" d="M479.761,595.57c2.973-5.427-4.882,5.251-1.802,2.281
	c-6.512,6.279-5.155,3.609-2.029,2.15c-2.389,1.008-4.778,2.016-7.166,3.024c1.965-0.788,3.941-1.28,6.031-1.604
	c-2.658,0.357-5.317,0.714-7.975,1.072c3.961-0.468,7.878-0.307,11.83,0.178c-2.658-0.357-5.317-0.714-7.975-1.072
	c7.362,1.051,14.502,3.121,21.359,5.985c-2.389-1.008-4.778-2.016-7.166-3.024c1.297,0.563,2.578,1.151,3.848,1.773
	c14.686,7.193,32.337,4.104,41.046-10.763c7.802-13.319,3.917-33.856-10.763-41.046c-27.815-13.623-72.799-22.541-91.046,10.763
	c-7.859,14.344-3.625,32.618,10.763,41.046C452.525,614.422,471.914,609.893,479.761,595.57L479.761,595.57z"/>
</svg>
