<?xml version="1.0" encoding="utf-8"?>
<!-- Generator: Adobe Illustrator 17.0.0, SVG Export Plug-In . SVG Version: 6.00 Build 0)  -->
<!DOCTYPE svg PUBLIC "-//W3C//DTD SVG 1.1//EN" "http://www.w3.org/Graphics/SVG/1.1/DTD/svg11.dtd">
<svg version="1.1" id="Layer_1" xmlns="http://www.w3.org/2000/svg" xmlns:xlink="http://www.w3.org/1999/xlink" x="0px" y="0px"
	 width="1000px" height="1000px" viewBox="0 0 1000 1000" enable-background="new 0 0 1000 1000" xml:space="preserve">
<g>
	<path fill="#800000018000000180000001" d="M705.904,693.858c-4.283-7.311-10.338-10.76-17.929-13.787
		c-107.249-42.763-222.052-63.316-334.259-88.518c-10.868-2.441-21.726-4.923-32.57-7.467
		c61.983-27.358,123.34-56.134,185.73-82.572c46.161-19.39,92.938-37.772,141.099-51.587c15.708-4.506,25.324-21.013,20.953-36.904
		c-4.299-15.629-21.191-25.46-36.904-20.953c-53.469,15.338-105.143,36.337-156.305,57.998
		c-52.565,22.255-104.423,46.133-156.487,69.525c-20.727,9.312-41.491,18.543-62.374,27.501
		c-6.719,2.882-11.939,11.21-13.787,17.929c-2.13,7.743-1.034,16.188,3.024,23.117c1.513,2.583,3.411,4.912,5.597,6.922
		c-0.225,0.643-0.438,1.294-0.622,1.962c-4.256,15.472,5.092,32.945,20.953,36.904c112.333,28.032,227.029,46.929,337.593,81.852
		c21.053,6.65,41.898,13.97,62.407,22.148c7.083,2.824,16.814,0.668,23.117-3.024c6.706-3.928,11.724-10.43,13.787-17.929
		C711.058,709.232,709.963,700.787,705.904,693.858z"/>
	<path fill="#800000018000000180000001" d="M504,527c-16.354,0-30,13.646-30,30c0,16.354,13.646,30,30,30c50.667,0,101.333,0,152,0
		c16.354,0,30-13.646,30-30c0-16.354-13.646-30-30-30C605.333,527,554.667,527,504,527z"/>
</g>
</svg>
