<?xml version="1.0" encoding="utf-8"?>
<!-- Generator: Adobe Illustrator 17.0.0, SVG Export Plug-In . SVG Version: 6.00 Build 0)  -->
<!DOCTYPE svg PUBLIC "-//W3C//DTD SVG 1.1//EN" "http://www.w3.org/Graphics/SVG/1.1/DTD/svg11.dtd">
<svg version="1.1" id="Layer_1" xmlns="http://www.w3.org/2000/svg" xmlns:xlink="http://www.w3.org/1999/xlink" x="0px" y="0px"
	 width="1000px" height="1000px" viewBox="0 0 1000 1000" enable-background="new 0 0 1000 1000" xml:space="preserve">
<path d="M919.435,728.02c-28.529-21.396-58.289-44.769-93.476-53.819c-9.693-2.493-19.914,3.062-22.602,12.833
	c-2.621,9.529,3.137,20.108,12.833,22.602c3.494,0.899,6.927,1.958,10.329,3.158c1.33,0.469,2.644,0.983,3.954,1.504
	c-1.715-0.659,3.689,1.649,4.568,2.063c7.582,3.574,14.847,7.804,21.949,12.243c3.952,2.47,7.843,5.036,11.692,7.664
	c-9.698,3.835-19.016,8.579-27.653,14.336c-20.607,13.738-35.778,32.323-45.096,55.211c-3.783,9.293,4.035,20.182,12.833,22.602
	c10.018,2.756,18.027-2.971,22.028-11.528c-0.002,0.031,0.126-0.232,0.48-1.017c0.455-1.01,0.947-2.002,1.438-2.994
	c0.976-1.97,2.059-3.885,3.176-5.778c1.11-1.881,2.32-3.701,3.562-5.497c0.158-0.228,0.322-0.452,0.483-0.678
	c0.369-0.466,1.531-1.979,1.966-2.498c3.048-3.634,6.424-6.983,9.958-10.141c0.661-0.591,3.253-2.686,3.894-3.24
	c1.563-1.147,3.15-2.262,4.763-3.337c4.118-2.746,8.443-5.172,12.855-7.41c2.033-1.031,4.105-1.983,6.186-2.911
	c0.036-0.015,0.065-0.026,0.103-0.042c1.47-0.597,2.957-1.154,4.445-1.704c10.012-3.703,20.43-6.254,30.943-8.042
	c6.126-1.042,11.266-7.137,12.833-12.833C930.256,740.127,926.131,733.042,919.435,728.02z"/>
</svg>
