<?xml version="1.0" encoding="utf-8"?>
<!-- Generator: Adobe Illustrator 17.0.0, SVG Export Plug-In . SVG Version: 6.00 Build 0)  -->
<!DOCTYPE svg PUBLIC "-//W3C//DTD SVG 1.1//EN" "http://www.w3.org/Graphics/SVG/1.1/DTD/svg11.dtd">
<svg version="1.1" id="Layer_1" xmlns="http://www.w3.org/2000/svg" xmlns:xlink="http://www.w3.org/1999/xlink" x="0px" y="0px"
	 width="1000px" height="1000px" viewBox="0 0 1000 1000" enable-background="new 0 0 1000 1000" xml:space="preserve">
<path fill="#800000018000000180000001" d="M753,326.409c23.946,0,47.895,0.06,71.824,1.096c11.99,0.519,23.966,1.337,35.909,2.513
	c2.938,0.289,5.872,0.62,8.804,0.962c1.164,0.138,2.327,0.281,3.49,0.428c5.945,0.741-4.962-0.704,0.937,0.131
	c6.198,0.878,12.368,1.946,18.509,3.157c12.022,2.37,24.248-3.245,27.678-15.715c3.068-11.153-3.675-25.304-15.715-27.678
	c-49.807-9.818-100.876-9.894-151.436-9.895c-12.265,0-22.5,10.235-22.5,22.5C730.5,316.174,740.735,326.409,753,326.409
	L753,326.409z"/>
</svg>
