<?xml version="1.0" encoding="utf-8"?>
<!-- Generator: Adobe Illustrator 17.0.0, SVG Export Plug-In . SVG Version: 6.00 Build 0)  -->
<!DOCTYPE svg PUBLIC "-//W3C//DTD SVG 1.1//EN" "http://www.w3.org/Graphics/SVG/1.1/DTD/svg11.dtd">
<svg version="1.1" id="Layer_1" xmlns="http://www.w3.org/2000/svg" xmlns:xlink="http://www.w3.org/1999/xlink" x="0px" y="0px"
	 width="1000px" height="1000px" viewBox="0 0 1000 1000" enable-background="new 0 0 1000 1000" xml:space="preserve">
<path d="M878.175,631.954c-15.132-20.144-37.6-33.809-62.666-37.386c-14.584-2.081-28.606-1.581-43.097,1.261
	c-8.428,1.653-13.458,10.862-12.464,18.948c-7.912,2.866-15.276,7.263-21.594,13.4c-9.158,8.896-14.273,20.862-15.019,33.515
	c-0.798,13.527,5.513,26.14,14.064,36.148c10.41,12.184,26.046,19.585,40.922,24.589c16.106,5.418,33.938,7.672,50.913,6.528
	c13.153-0.886,26.596-3.819,37.885-10.926c10.54-6.636,17.737-15.931,22.229-27.435
	C896.849,671.386,890.098,647.827,878.175,631.954z M778.71,645.19c-3.872,0.592-1.497,0.155-0.239,0.02
	C778.551,645.202,778.631,645.198,778.71,645.19z M851.192,687.267c-0.079,0.071-0.163,0.137-0.243,0.206
	c-0.698,0.479-1.407,0.943-2.129,1.385c-0.941,0.576-1.913,1.098-2.893,1.603c-0.354,0.183-0.891,0.432-1.402,0.663
	c-1.91,0.701-3.862,1.286-5.829,1.802c-1.817,0.476-3.658,0.851-5.508,1.17c-0.884,0.105-2.462,0.3-3.188,0.361
	c-1.837,0.154-3.679,0.232-5.521,0.283c-3.425,0.096-6.854-0.008-10.274-0.206c-1.845-0.107-3.686-0.27-5.526-0.448
	c-0.955-0.093-1.908-0.204-2.861-0.314c-0.053-0.006-0.096-0.011-0.146-0.017c-0.061-0.009-0.12-0.018-0.191-0.028
	c-7.892-1.154-15.726-3.482-23.184-6.373c-0.265-0.144-3.176-1.393-4.012-1.8c-1.549-0.755-3.063-1.578-4.562-2.426
	c-1.412-0.8-2.786-1.666-4.142-2.557c-0.631-0.415-1.247-0.851-1.863-1.287c-1.974-1.629-3.818-3.411-5.534-5.308
	c-0.205-0.227-0.398-0.464-0.596-0.697c-0.52-0.752-1.018-1.52-1.49-2.303c-0.458-0.759-0.868-1.545-1.263-2.338
	c-0.025-0.073-0.054-0.145-0.079-0.218c-0.351-1.016-0.626-2.056-0.873-3.101c-0.04-0.17-0.068-0.343-0.103-0.514
	c-0.059-1.099-0.046-2.2,0.016-3.299c0.016-0.075,0.028-0.15,0.044-0.224c0.211-0.984,0.495-1.951,0.802-2.909
	c0.031-0.096,0.069-0.189,0.101-0.284c0.278-0.543,0.567-1.081,0.868-1.611c0.396-0.695,0.834-1.365,1.284-2.026
	c1.119-1.291,2.351-2.478,3.642-3.596c0.229-0.157,0.455-0.318,0.685-0.473c0.952-0.638,1.942-1.217,2.942-1.776
	c0.72-0.403,1.459-0.769,2.203-1.125c0.254-0.093,0.506-0.191,0.761-0.281c2.383-0.847,4.844-1.461,7.325-1.943
	c0.177-0.034,0.356-0.059,0.533-0.09c1.196-0.113,2.395-0.183,3.595-0.227c2.726-0.099,5.456,0.038,8.17,0.298
	c0.411,0.07,0.823,0.134,1.233,0.208c1.574,0.284,3.133,0.645,4.685,1.029c3.589,0.888,7.095,2.087,10.531,3.443
	c8.746,3.448,18.896-3.707,21.185-12.029c0.333-1.211,0.532-2.394,0.611-3.543c3.504,1.787,6.868,3.848,10.073,6.127
	c0.112,0.08,0.213,0.151,0.307,0.218c0.793,0.647,1.572,1.311,2.339,1.988c1.903,1.677,3.697,3.475,5.412,5.342
	c0.758,0.826,1.487,1.679,2.204,2.54c1.319,1.815,2.531,3.706,3.656,5.647c0.84,1.448,1.604,2.94,2.315,4.456
	c0.059,0.158,0.121,0.314,0.18,0.472c0.412,1.112,0.772,2.242,1.109,3.379c0.471,1.589,0.841,3.206,1.144,4.835
	c0.087,1.022,0.129,2.048,0.144,3.074c0.014,0.927-0.153,2.805-0.253,3.982c-0.247,1.115-0.543,2.22-0.886,3.309
	c-0.066,0.209-0.143,0.413-0.214,0.62c-0.128,0.274-0.256,0.539-0.369,0.756c-0.429,0.822-0.909,1.617-1.405,2.401
	c-0.146,0.231-0.303,0.455-0.457,0.68C853.327,685.265,852.28,686.291,851.192,687.267z"/>
</svg>
