<?xml version="1.0" encoding="utf-8"?>
<!-- Generator: Adobe Illustrator 17.0.0, SVG Export Plug-In . SVG Version: 6.00 Build 0)  -->
<!DOCTYPE svg PUBLIC "-//W3C//DTD SVG 1.1//EN" "http://www.w3.org/Graphics/SVG/1.1/DTD/svg11.dtd">
<svg version="1.1" id="Layer_1" xmlns="http://www.w3.org/2000/svg" xmlns:xlink="http://www.w3.org/1999/xlink" x="0px" y="0px"
	 width="1000px" height="1000px" viewBox="0 0 1000 1000" enable-background="new 0 0 1000 1000" xml:space="preserve">
<path fill="#800000018000000180000001" d="M117.986,316.409c20.578,0,41.162,0.068,61.719,1.096
	c9.982,0.499,19.955,1.276,29.874,2.513c-7.502-0.936,0.479,0.106,2.12,0.369c2.112,0.339,4.214,0.736,6.312,1.152
	c4.115,0.818,8.185,1.858,12.175,3.157c11.664,3.796,24.539-4.305,27.678-15.715c3.366-12.236-4.063-23.886-15.715-27.678
	c-19.385-6.309-40.654-7.597-60.883-8.717c-21.068-1.166-42.186-1.178-63.28-1.178c-12.265,0-22.5,10.235-22.5,22.5
	C95.486,306.174,105.721,316.409,117.986,316.409L117.986,316.409z"/>
</svg>
