<?xml version="1.0" encoding="utf-8"?>
<!-- Generator: Adobe Illustrator 17.0.0, SVG Export Plug-In . SVG Version: 6.00 Build 0)  -->
<!DOCTYPE svg PUBLIC "-//W3C//DTD SVG 1.1//EN" "http://www.w3.org/Graphics/SVG/1.1/DTD/svg11.dtd">
<svg version="1.1" id="Layer_1" xmlns="http://www.w3.org/2000/svg" xmlns:xlink="http://www.w3.org/1999/xlink" x="0px" y="0px"
	 width="1000px" height="1000px" viewBox="0 0 1000 1000" enable-background="new 0 0 1000 1000" xml:space="preserve">
<path d="M234.267,265.249c-32.655-32.378-75.232-51.64-119.924-60.681c-10.497-2.123-21.205,2.875-24.192,13.736
	c-2.692,9.788,3.224,22.066,13.736,24.192c9.559,1.934,19.013,4.289,28.336,7.154c4.931,1.516,9.801,3.223,14.625,5.049
	c0.759,0.287,4.206,1.689,4.895,1.948c2.029,0.885,4.046,1.798,6.049,2.739c9.122,4.283,17.877,9.32,26.235,14.944
	c0.48,0.323,0.951,0.659,1.426,0.988c-26.807,14.86-52.809,32.135-74.351,53.5c-7.609,7.546-7.553,20.259,0,27.813
	c7.6,7.6,20.205,7.545,27.813,0c5.664-5.617,11.707-10.806,17.955-15.757c0.498-0.356,3.684-2.789,4.342-3.274
	c1.977-1.457,3.981-2.879,5.989-4.293c4.084-2.876,8.243-5.645,12.431-8.365c16.293-10.583,33.295-20.097,50.657-28.805
	C241.704,290.41,242.843,273.753,234.267,265.249z"/>
</svg>
