<?xml version="1.0" encoding="utf-8"?>
<!-- Generator: Adobe Illustrator 17.0.0, SVG Export Plug-In . SVG Version: 6.00 Build 0)  -->
<!DOCTYPE svg PUBLIC "-//W3C//DTD SVG 1.1//EN" "http://www.w3.org/Graphics/SVG/1.1/DTD/svg11.dtd">
<svg version="1.1" id="Layer_1" xmlns="http://www.w3.org/2000/svg" xmlns:xlink="http://www.w3.org/1999/xlink" x="0px" y="0px"
	 width="1000px" height="1000px" viewBox="0 0 1000 1000" enable-background="new 0 0 1000 1000" xml:space="preserve">
<path fill="#800000018000000180000001" d="M830.785,513.501c-22.629-19.464-50.594-30.64-79.454-37.263
	c-34.424-7.899-70.227-10.485-105.468-10.898c-82.565-0.966-165.5,10.076-246.574,24.838
	c-71.514,13.021-142.976,29.572-211.836,53.056c-19.435,6.628-38.71,13.992-57.308,22.718c-9.316,4.371-14.858,16.079-14.858,25.904
	c0,11.062,5.909,19.938,14.858,25.904c24.477,16.318,48.904,32.715,72.767,49.924c6.231,4.493,12.411,9.057,18.546,13.681
	c1.299,0.98,2.594,1.966,3.888,2.953c0.184,0.14,0.366,0.281,0.55,0.422c3.249,2.53,6.47,5.096,9.674,7.682
	c10.868,8.776,21.455,17.934,31.362,27.79c11.587,11.528,30.846,11.58,42.426,0c11.536-11.536,11.588-30.898,0-42.426
	c-22.398-22.284-47.984-41.426-73.483-59.97c-8.756-6.368-17.601-12.61-26.5-18.775c12.202-4.056,24.498-7.837,36.815-11.457
	c35.349-10.388,71.142-19.264,107.129-27.14c45.812-10.026,92.026-18.294,138.496-24.614c71.751-9.42,145.841-15.54,217.887-6.469
	c19.471,2.843,38.897,7.06,57.239,14.258c4.427,1.999,8.76,4.191,12.955,6.648c2.528,1.481,4.985,3.08,7.383,4.762
	c0.036,0.025,0.074,0.052,0.111,0.079c0.323,0.272,0.649,0.542,0.969,0.818c12.386,10.653,30.22,12.206,42.426,0
	C841.693,545.019,843.192,524.173,830.785,513.501z"/>
</svg>
