<?xml version="1.0" encoding="utf-8"?>
<!-- Generator: Adobe Illustrator 17.0.0, SVG Export Plug-In . SVG Version: 6.00 Build 0)  -->
<!DOCTYPE svg PUBLIC "-//W3C//DTD SVG 1.1//EN" "http://www.w3.org/Graphics/SVG/1.1/DTD/svg11.dtd">
<svg version="1.1" id="Layer_1" xmlns="http://www.w3.org/2000/svg" xmlns:xlink="http://www.w3.org/1999/xlink" x="0px" y="0px"
	 width="1000px" height="1000px" viewBox="0 0 1000 1000" enable-background="new 0 0 1000 1000" xml:space="preserve">
<path fill="#800000018000000180000001" d="M845.47,463.71c-28.508-28.311-66.301-47.63-107.305-44.83
	c-37.67,2.573-72.256,19.611-102.709,41.065c-32.819,23.121-62.303,50.521-91.259,78.207
	c-13.471,12.881-26.852,25.858-40.531,38.519c-6.38,5.905-12.839,11.724-19.418,17.406c-2.999,2.59-6.032,5.139-9.094,7.655
	c-1.486,1.221-2.985,2.427-4.489,3.626c-0.219,0.175-0.44,0.347-0.66,0.521c-10.741,8.129-22.127,15.663-34.524,21.016
	c-10.713,4.377-21.995,7.104-33.416,8.869c-23.021,2.607-46.379,1.804-69.355-1.004c-25.669-3.73-51.163-9.932-75.243-19.641
	c-9.482-4.21-18.693-9.085-27.158-15.094c-0.626-0.53-1.26-1.051-1.873-1.596c-1.799-1.599-3.492-3.313-5.104-5.099
	c-0.163-0.25-0.316-0.505-0.473-0.759c0.029-0.045,0.056-0.092,0.085-0.137c1.851-2.043,3.871-3.931,5.973-5.715
	c0.535-0.377,1.065-0.762,1.605-1.132c2.381-1.633,4.845-3.143,7.334-4.604c5.462-3.207,11.161-6.004,16.927-8.617
	c14.898-6.752,18.377-28.047,10.763-41.046c-3.928-6.706-10.43-11.724-17.929-13.787c-8.403-2.312-15.468-0.442-23.117,3.024
	c-15.999,7.251-32.335,16.599-44.253,29.738c-10.862,11.976-19.61,28.385-17.803,45.102c1.861,17.213,9.188,31.541,21.627,43.657
	c10.709,10.43,23.82,18.654,37.221,25.156c34.394,16.688,71.238,25.307,108.951,30.245c34.954,4.576,71.856,4.487,106.109-4.622
	c8.248-2.194,16.194-5.328,23.978-8.81c30.099-12.889,55.366-34.291,79.482-56.167c6.578-5.967,13.068-12.027,19.52-18.128
	c1.382,2.596,3.145,4.997,5.251,7.102c5.462,5.462,11.366,7.307,18.411,8.394c-0.481-0.065-0.963-0.129-1.444-0.194
	c55.826,7.675,109.353,26.611,161.147,48.261c1.627,0.691,3.255,1.38,4.88,2.076c7.785,3.332,14.584,5.371,23.117,3.024
	c7.499-2.063,14.001-7.081,17.929-13.787c4.059-6.929,5.154-15.374,3.024-23.117c-1.847-6.713-7.068-15.054-13.787-17.929
	c-30.184-12.917-60.606-25.255-91.84-35.425c-27.231-8.866-54.854-15.537-83.027-20.04c6.315-5.941,12.671-11.838,19.119-17.638
	c7.648-6.88,15.424-13.618,23.359-20.166c2.873-2.371,5.783-4.698,8.708-7.005c1.233-0.948,2.809-2.158,3.623-2.766
	c2.041-1.526,4.102-3.024,6.172-4.51c13.868-9.955,28.501-18.983,44.084-25.999c8.9-3.505,18.066-6.256,27.489-7.889
	c6.332-0.596,12.68-0.637,19.012-0.075c5.825,1.059,11.52,2.635,17.07,4.702c5.725,2.688,11.199,5.847,16.442,9.41
	c1.01,0.686,2,1.399,2.986,2.118c0.498,0.408,0.999,0.812,1.494,1.223c3.652,3.038,7.123,6.29,10.493,9.636
	c11.598,11.517,30.838,11.588,42.426,0C856.998,494.608,857.068,475.228,845.47,463.71z M224.679,595.239
	C226.306,597.325,225.646,596.538,224.679,595.239L224.679,595.239z M436.262,626.587c-0.04,0.017-0.08,0.031-0.12,0.047
	c1.965-0.829,3.929-1.658,5.894-2.487C440.106,624.95,438.186,625.774,436.262,626.587z"/>
</svg>
