<?xml version="1.0" encoding="utf-8"?>
<!-- Generator: Adobe Illustrator 17.0.0, SVG Export Plug-In . SVG Version: 6.00 Build 0)  -->
<!DOCTYPE svg PUBLIC "-//W3C//DTD SVG 1.1//EN" "http://www.w3.org/Graphics/SVG/1.1/DTD/svg11.dtd">
<svg version="1.1" id="Layer_1" xmlns="http://www.w3.org/2000/svg" xmlns:xlink="http://www.w3.org/1999/xlink" x="0px" y="0px"
	 width="1000px" height="1000px" viewBox="0 0 1000 1000" enable-background="new 0 0 1000 1000" xml:space="preserve">
<path fill="#800000018000000180000001" d="M847.37,603.232c-2.526-13.208-10.938-25.155-19.657-34.991
	c-8.936-10.08-20.292-18.273-31.517-25.587c-11.514-7.503-23.782-13.827-36.234-19.61c-30.766-14.289-62.836-25.687-95.326-35.355
	c-28.674-8.532-57.771-15.76-87.128-21.524c-22.4-4.398-45.088-8.073-67.932-8.85c-25.614-0.871-51.327,0.298-76.856,2.384
	c-33.885,2.768-67.77,7.34-101.054,14.312c-32.515,6.811-64.252,16.491-94.464,30.399c-27.197,12.52-52.014,30.292-69.29,55.018
	c-17.573,25.152-20.611,57.91-12.034,86.88c10.693,36.115,34.691,68.749,68.936,85.385c35.688,17.337,76.737,21.39,115.796,16.424
	c40.541-5.154,80.884-17.346,115.025-40.414c13.85-9.358,26.601-20.33,37.149-33.02c29.257,16.068,59.251,30.67,91.148,41.017
	c26.799,8.693,55.407,13.629,83.611,13.265c31.588-0.408,61.729-8.311,90.338-21.23c16.91-7.005,33.702-14.617,48.784-25.071
	c13.199-9.149,25.769-19.924,33.799-34.091C848.504,634.389,850.402,619.083,847.37,603.232z M776.197,601.655
	C777.479,602.63,778.413,603.365,776.197,601.655L776.197,601.655z M237.153,669.009
	C236.435,668.465,236.115,668.211,237.153,669.009L237.153,669.009z M781.938,626.255c-1.072,1.008-2.183,1.974-3.303,2.927
	c-0.219,0.186-0.444,0.365-0.665,0.549c-13.316,9.683-28.438,16.899-43.534,23.294c2.389-1.008,4.778-2.016,7.166-3.024
	c-4.533,1.902-9.045,3.849-13.558,5.794c-13.893,5.637-28.276,9.705-43.076,12.046c-14.764,1.565-29.583,1.404-44.334-0.251
	c-22.767-3.542-44.8-10.38-66.119-19.055c-19.546-8.465-38.418-18.274-56.994-28.646c-1.644-11.547-10.413-21.9-21.886-25.056
	c-6.763-1.86-13.459-1.223-19.324,1.279c-3.074-1.801-6.148-3.602-9.224-5.397c-14.129-8.247-32.784-3.341-41.046,10.763
	c-8.259,14.1-3.337,32.816,10.763,41.046c0.936,0.546,1.871,1.093,2.807,1.64c-2.17,2.092-4.405,4.117-6.692,6.073
	c-0.514,0.439-1.037,0.867-1.559,1.297c-1.148,0.876-2.647,2.016-3.486,2.613c-3.936,2.798-8.014,5.393-12.161,7.865
	c-7.078,4.219-14.449,7.932-21.982,11.269c-17.971,7.201-36.745,12.25-55.88,15.169c-16.534,1.925-33.239,2.229-49.792,0.422
	c-10.62-1.679-21.061-4.301-31.104-8.146c-4.916-2.274-9.676-4.845-14.233-7.794c-1.09-0.705-2.155-1.447-3.213-2.198
	c-2.491-2.077-4.845-4.313-7.097-6.645c-1.067-1.105-2.087-2.255-3.094-3.415c-0.106-0.122-0.205-0.249-0.309-0.372
	c-1.766-2.514-3.381-5.135-4.964-7.765c-2.839-4.718-5.407-9.597-7.7-14.602c-2.164-5.683-3.878-11.516-4.991-17.491
	c-0.299-3.765-0.328-7.536-0.058-11.302c0.647-3.243,1.526-6.426,2.628-9.544c1.001-2.039,2.082-4.035,3.258-5.985
	c0.893-1.479,1.854-2.916,2.842-4.333c4.297-5.127,9.177-9.75,14.345-13.991c0.281-0.204,0.558-0.413,0.84-0.617
	c1.665-1.202,3.363-2.358,5.073-3.494c3.534-2.346,7.172-4.531,10.861-6.623c6.827-3.87,13.9-7.293,21.085-10.448
	c38.813-15.808,80.457-24.515,121.871-30.305c27.267-3.533,54.715-5.759,82.2-6.506c18.681-0.508,37.449-0.456,56.027,1.703
	c24.107,3.45,47.993,8.624,71.627,14.426c31.004,7.611,61.708,16.641,91.705,27.584c8,2.918,15.935,6.012,23.802,9.273
	c17.388,7.523,34.489,15.995,50.172,26.658c1.533,1.042,3.041,2.121,4.537,3.215c0.038,0.031,0.078,0.062,0.116,0.093
	c3.141,2.567,6.138,5.309,8.96,8.222c0.95,0.981,1.861,1.999,2.756,3.03c0.955,1.403,1.834,2.855,2.635,4.351
	c0.136,0.445,0.265,0.892,0.384,1.342c0,0.001,0,0.002,0,0.002c-0.077,0.287-0.166,0.57-0.251,0.855
	c-0.4,0.73-0.814,1.454-1.254,2.165c-0.208,0.336-0.429,0.664-0.648,0.993C785.313,622.972,783.652,624.644,781.938,626.255z"/>
</svg>
