<?xml version="1.0" encoding="utf-8"?>
<!-- Generator: Adobe Illustrator 17.0.0, SVG Export Plug-In . SVG Version: 6.00 Build 0)  -->
<!DOCTYPE svg PUBLIC "-//W3C//DTD SVG 1.1//EN" "http://www.w3.org/Graphics/SVG/1.1/DTD/svg11.dtd">
<svg version="1.1" id="Layer_1" xmlns="http://www.w3.org/2000/svg" xmlns:xlink="http://www.w3.org/1999/xlink" x="0px" y="0px"
	 width="1000px" height="1000px" viewBox="0 0 1000 1000" enable-background="new 0 0 1000 1000" xml:space="preserve">
<g>
	<path fill="#800000018000000180000001" d="M736.307,575.534c-18.264-16.238-40.354-26.511-63.273-34.446
		c-23.424-8.109-47.941-12.986-72.461-16.325c-60.493-8.236-121.04-7.987-181.512,0.311c-39.56,5.428-81.324,14.857-116.196,35.523
		c-15.73,3.657-31.455,9.223-43.961,18.776c-8.551,6.532-16.601,13.561-21.435,23.467c-4.48,9.181-7.325,19.093-6.676,29.424
		c2.492,39.664,36.051,68.787,66.121,90.319c14.759,10.569,30.619,19.645,47.065,27.312c16.629,7.752,34.001,14.838,52.047,18.51
		c40.082,8.158,80.478,11.585,121.392,10.989c22.306-0.325,44.617-1.825,66.731-4.785c22.367-2.994,44.621-6.71,66.079-13.892
		c10.256-3.433,20.394-7.611,29.975-12.634c8.969-4.701,16.807-11.061,24.647-17.416c10.645-8.628,20.78-17.987,29.639-28.461
		c16.332-19.308,30.042-42.412,29.725-68.54C763.94,611.238,752.891,590.278,736.307,575.534z M661.684,688.838
		c-0.477,0.386-1.212,0.968-1.988,1.577c-1.817,1.283-3.75,2.434-5.653,3.561c-3.554,2.106-7.251,3.964-11.014,5.67
		c-19.939,7.864-41.15,12.317-62.328,15.396c-47.322,6.046-96.117,6.342-143.468,0.343c-19.95-2.969-39.482-7.654-58.225-15.156
		c-19.424-8.578-37.989-19.246-55.09-31.836c-1.314-1.031-3.809-2.978-4.88-3.864c-2.089-1.729-4.133-3.513-6.151-5.324
		c-4.07-3.652-7.953-7.511-11.633-11.555c-0.635-0.698-1.252-1.411-1.868-2.126c4.484-2.451,8.244-6.084,10.519-10.904
		c1.012-2.143,2.162-4.206,3.437-6.202c0.202-0.316,0.415-0.625,0.625-0.936c2.771-3.202,5.851-6.125,9.105-8.836
		c0.757-0.541,1.531-1.059,2.303-1.58c3.852-0.799,7.723-1.508,11.601-2.138c7.626-1.237,13.603-6.304,17.375-12.828
		c24.917-9.385,51.28-14.958,77.592-18.732c51.999-6.69,105.228-6.794,157.229-0.111c26.722,3.84,53.498,9.614,78.596,19.67
		c4.746,2.118,9.408,4.416,13.939,6.967c2.578,1.452,5.1,3.001,7.57,4.63c0.998,0.658,1.976,1.346,2.951,2.038
		c2.969,2.487,5.755,5.186,8.304,8.101c0.341,0.515,0.674,1.035,1,1.56c0.573,0.922,1.105,1.868,1.61,2.829
		c0.386,1.188,0.72,2.392,1.005,3.608c0.052,1.367,0.045,2.734-0.023,4.101c-0.525,2.378-1.203,4.717-2.014,7.014
		c-2.215,4.548-4.845,8.878-7.746,13.03c-0.344,0.493-0.7,0.978-1.053,1.464c-0.565,0.688-1.134,1.373-1.709,2.053
		c-2.744,3.243-5.642,6.353-8.616,9.385C676.298,676.524,669.098,682.828,661.684,688.838z M691.109,661.228
		C690.897,661.505,690.85,661.565,691.109,661.228L691.109,661.228z"/>
	<path fill="#800000018000000180000001" d="M797.904,476.336c-4.239-7.237-10.34-10.884-17.929-13.787
		c-26.764-10.237-55.439-15.638-83.628-20.209c-40.564-6.578-81.532-10.767-122.54-13.28c-84.252-5.162-169.826-4.043-253.256,9.738
		c-36.762,6.072-75.556,15.131-107.694,34.775c-13.927,8.513-19.149,26.729-10.763,41.046c8.137,13.89,27.084,19.297,41.046,10.763
		c5.449-3.33,11.131-6.232,16.95-8.847c29.39-11.818,61.042-17.932,92.326-22.311c80.94-10.477,163.659-9.825,244.894-3.535
		c21.42,1.658,42.802,3.847,64.103,6.648c34.565,4.748,69.969,10.584,102.61,23.069c15.292,5.849,32.883-6.337,36.904-20.953
		C803.058,491.71,801.963,483.265,797.904,476.336z"/>
</g>
</svg>
