<?xml version="1.0" encoding="utf-8"?>
<!-- Generator: Adobe Illustrator 17.0.0, SVG Export Plug-In . SVG Version: 6.00 Build 0)  -->
<!DOCTYPE svg PUBLIC "-//W3C//DTD SVG 1.1//EN" "http://www.w3.org/Graphics/SVG/1.1/DTD/svg11.dtd">
<svg version="1.1" id="Layer_1" xmlns="http://www.w3.org/2000/svg" xmlns:xlink="http://www.w3.org/1999/xlink" x="0px" y="0px"
	 width="1000px" height="1000px" viewBox="0 0 1000 1000" enable-background="new 0 0 1000 1000" xml:space="preserve">
<path fill="#800000018000000180000001" d="M153.857,630.627c5.919,0.367,11.813,0.936,17.694,1.695
	c-2.658-0.357-5.317-0.714-7.975-1.072c33.822,4.566,66.173,15.705,97.523,28.869c-2.389-1.008-4.778-2.016-7.166-3.024
	c48.357,20.415,94.913,45.176,144.716,62.088c26.12,8.869,52.922,14.594,80.37,17.361c23.394,2.358,47.031,1.082,70.324-1.74
	c52.776-6.393,104.168-19.961,153.998-38.344c50.294-18.555,99.411-41.349,145.032-69.58c14.472-8.956,28.548-18.564,42.055-28.92
	c6.516-4.996,11.515-9.67,13.787-17.929c2.13-7.743,1.034-16.188-3.024-23.117c-3.928-6.706-10.43-11.724-17.929-13.787
	c-6.946-1.911-17.103-1.587-23.117,3.024c-44.327,33.988-94.497,60.326-145.833,81.999c2.389-1.008,4.778-2.016,7.166-3.024
	c-55.786,23.427-114.437,41.82-174.511,50.028c2.658-0.357,5.317-0.714,7.975-1.072c-28.248,3.773-56.734,5.08-85.065,1.408
	c2.658,0.357,5.317,0.714,7.975,1.072c-35.66-4.824-69.769-16.494-102.818-30.399c2.389,1.008,4.778,2.016,7.166,3.024
	c-37.656-15.927-74.222-34.269-112.059-49.792c-37.269-15.29-75.909-26.266-116.285-28.768c-16.338-1.013-30,14.413-30,30
	C123.857,617.746,137.542,629.616,153.857,630.627L153.857,630.627z"/>
<path fill="#800000018000000180000001" d="M491,629.199c0.01-0.718,0.058-1.426,0.141-2.139c-0.357,2.658-0.714,5.317-1.072,7.975
	c0.314-2.234,0.977-4.362,1.84-6.443c-1.008,2.389-2.016,4.778-3.024,7.166c0.904-2.086,1.982-4.074,3.173-6.009
	c0.663-1.077,1.377-2.122,2.103-3.157c0.382-0.545,0.779-1.079,1.175-1.614c2.389-3.224-5.882,7.469-2.556,3.332
	c4.174-5.194,8.888-9.95,13.73-14.518c5.791-5.464,11.897-10.59,18.113-15.56c2.117-1.693,8.889-6.919-0.347,0.207
	c1.691-1.305,3.395-2.592,5.104-3.874c3.831-2.875,7.711-5.683,11.614-8.458c32.123-22.839,66.183-43.054,100.848-61.768
	c19.85-10.716,40.015-21.046,60.803-29.834c-2.389,1.008-4.778,2.016-7.166,3.024c3.049-1.281,6.115-2.521,9.211-3.688
	c7.587-2.859,13.705-6.576,17.929-13.787c4.059-6.929,5.154-15.374,3.024-23.117c-4.036-14.674-21.585-26.726-36.904-20.953
	c-31.25,11.777-61.127,27.526-90.27,43.716c-34.266,19.036-67.947,39.581-99.373,63.057c-15.753,11.768-31.636,23.993-44.886,38.621
	c-12.065,13.32-22.958,29.152-23.21,47.821c-0.221,16.355,13.813,30,30,30C477.52,659.199,490.779,645.549,491,629.199L491,629.199z
	"/>
</svg>
