<?xml version="1.0" encoding="utf-8"?>
<!-- Generator: Adobe Illustrator 17.0.0, SVG Export Plug-In . SVG Version: 6.00 Build 0)  -->
<!DOCTYPE svg PUBLIC "-//W3C//DTD SVG 1.1//EN" "http://www.w3.org/Graphics/SVG/1.1/DTD/svg11.dtd">
<svg version="1.1" id="Layer_1" xmlns="http://www.w3.org/2000/svg" xmlns:xlink="http://www.w3.org/1999/xlink" x="0px" y="0px"
	 width="1000px" height="1000px" viewBox="0 0 1000 1000" enable-background="new 0 0 1000 1000" xml:space="preserve">
<path fill="#800000018000000180000001" d="M747.308,713.786C638.51,691.939,533.167,655.662,424.49,633.13
	c-37.76-7.829-76.105-14.315-114.644-17.755c5.142-3.066,10.329-6.056,15.552-8.978c27.482-15.378,56.042-28.795,85-41.148
	c89.177-37.313,182.496-65.728,276.763-86.899c10.499-2.358,21.026-4.592,31.576-6.708c16.042-3.216,25.054-21.994,20.953-36.904
	c-4.563-16.588-20.885-24.165-36.904-20.953c-93.64,18.774-186.164,45.86-275.24,80.27
	c-73.569,28.42-148.898,61.482-209.427,113.159c-12.447,10.627-10.877,31.55,0,42.426c2.614,2.614,5.481,4.59,8.492,5.986
	c4.895,10.035,15.251,17.069,27.006,17.087c28.152,0.043,56.231,2.297,84.14,5.89c111.003,15.498,218.054,50.236,326.429,77.616
	c22.274,5.627,44.643,10.9,67.169,15.423c16.018,3.216,32.342-4.369,36.904-20.953C772.364,735.776,763.349,717.007,747.308,713.786
	z"/>
</svg>
