<?xml version="1.0" encoding="utf-8"?>
<!-- Generator: Adobe Illustrator 17.0.0, SVG Export Plug-In . SVG Version: 6.00 Build 0)  -->
<!DOCTYPE svg PUBLIC "-//W3C//DTD SVG 1.1//EN" "http://www.w3.org/Graphics/SVG/1.1/DTD/svg11.dtd">
<svg version="1.1" id="Layer_1" xmlns="http://www.w3.org/2000/svg" xmlns:xlink="http://www.w3.org/1999/xlink" x="0px" y="0px"
	 width="1000px" height="1000px" viewBox="0 0 1000 1000" enable-background="new 0 0 1000 1000" xml:space="preserve">
<path fill="#800000018000000180000001" d="M285,591c-4.733,0-9.467,0-14.2,0c-16.354,0-30,13.646-30,30s13.646,30,30,30
	c45.799,0,91.599,0,137.398,0c23.705,0,47.415-0.119,71.12,0.088c61.902,0.541,123.833,3.519,185.722,0.746
	c30.794-1.38,61.586-4.446,91.935-9.906c16.109-2.898,24.989-22.233,20.953-36.904c-2.063-7.499-7.081-14.001-13.787-17.929
	c-7.433-4.354-14.896-4.503-23.117-3.024c-7.32,1.317-14.665,2.469-22.033,3.48c2.658-0.357,5.317-0.714,7.975-1.072
	c-60.445,8.098-121.723,6.933-182.549,5.728C508.046,591.487,471.69,591,435.313,591c-52.576,0-105.151,0-157.727,0
	c-2.262,0-4.524,0-6.787,0c-16.354,0-30,13.646-30,30s13.646,30,30,30c4.733,0,9.467,0,14.2,0c16.354,0,30-13.646,30-30
	S301.354,591,285,591L285,591z"/>
</svg>
