<?xml version="1.0" encoding="utf-8"?>
<!-- Generator: Adobe Illustrator 17.0.0, SVG Export Plug-In . SVG Version: 6.00 Build 0)  -->
<!DOCTYPE svg PUBLIC "-//W3C//DTD SVG 1.1//EN" "http://www.w3.org/Graphics/SVG/1.1/DTD/svg11.dtd">
<svg version="1.1" id="Layer_1" xmlns="http://www.w3.org/2000/svg" xmlns:xlink="http://www.w3.org/1999/xlink" x="0px" y="0px"
	 width="1000px" height="1000px" viewBox="0 0 1000 1000" enable-background="new 0 0 1000 1000" xml:space="preserve">
<g>
	<path fill="#800000018000000180000001" d="M217.159,526.333c30.53-12.367,62.919-19.61,95.474-24.244
		c91.616-11.697,185.451-5.491,276.75,6.513c40.131,5.474,80.081,12.305,119.719,20.634c15.988,3.36,32.371-4.474,36.904-20.953
		c4.132-15.021-4.945-33.54-20.953-36.904c-92.39-19.414-186.945-32.134-281.363-34.789c-49.806-1.401-99.484,0.795-148.821,7.892
		c-42.784,6.154-85.284,17.398-123.702,37.614c-14.457,7.608-18.746,27.417-10.763,41.046c8.531,14.564,26.573,18.379,41.046,10.763
		C206.598,531.195,211.841,528.684,217.159,526.333z"/>
	<path fill="#800000018000000180000001" d="M739.911,574.404c-33.738-20.108-72.86-30.569-111.346-36.762
		c-46.321-7.453-93.229-9.76-140.097-9.02c-45.894,0.725-91.746,4.337-137.288,9.975c-41.393,5.124-82.673,11.581-123.394,20.673
		c-6.246,1.395-12.475,2.868-18.684,4.416c-15.862,3.954-25.208,21.435-20.953,36.904c4.413,16.042,21.048,24.906,36.904,20.953
		c38.26-9.538,77.218-16.317,116.27-21.681c86.538-11.4,175.703-16.773,262.521-5.681c14.067,2.007,28.12,4.521,41.97,7.828
		c-32.916,13.097-66.026,25.846-97.724,41.624c-14.631,7.283-18.605,27.658-10.763,41.046c8.669,14.8,26.406,18.05,41.046,10.763
		c11.195-5.573,22.621-10.656,34.123-15.558c42.505-17.721,86.155-33.135,127.415-53.672
		C760.598,615.915,758.227,585.321,739.911,574.404z"/>
</g>
</svg>
