<?xml version="1.0" encoding="utf-8"?>
<!-- Generator: Adobe Illustrator 17.0.0, SVG Export Plug-In . SVG Version: 6.00 Build 0)  -->
<!DOCTYPE svg PUBLIC "-//W3C//DTD SVG 1.1//EN" "http://www.w3.org/Graphics/SVG/1.1/DTD/svg11.dtd">
<svg version="1.1" id="Layer_1" xmlns="http://www.w3.org/2000/svg" xmlns:xlink="http://www.w3.org/1999/xlink" x="0px" y="0px"
	 width="1000px" height="1000px" viewBox="0 0 1000 1000" enable-background="new 0 0 1000 1000" xml:space="preserve">
<path fill="#800000018000000180000001" d="M739,633c-124.699,7.647-248.147-14.239-372.234-22.102
	c-45.216-2.865-90.492-3.367-135.545-0.279c45.452-15.74,92.777-25.437,140.441-32.078c99.94-13.087,201.754-14.001,300.313-36.613
	c15.938-3.657,25.146-21.661,20.953-36.904c-2.305-8.381-7.81-14.651-14.78-18.268c-1.409-2.737-3.232-5.267-5.436-7.47
	c-6.012-6.012-12.994-8.041-21.213-8.787c-95.993-8.71-192.268-14.719-288.527-19.557c-53.755-2.702-107.636-5.42-161.473-5.443
	c-16.354-0.007-30,13.652-30,30c0,16.359,13.646,29.993,30,30c71.075,0.03,142.263,3.871,213.26,8.128
	c-56.133,5.703-111.943,13.427-166.526,28.726c-38.678,10.841-76.463,25.762-111.875,44.743
	c-14.397,7.716-18.794,27.335-10.763,41.046c0.732,1.25,1.541,2.417,2.409,3.51c-5.633,7.579-7.862,17.994-5.433,26.823
	c4.608,16.753,20.842,23.94,36.904,20.953c9.789-1.82,19.614-3.414,29.47-4.816c122.83-15.687,245.715,2.917,368.119,13.71
	c60.48,5.332,121.264,8.399,181.936,4.678c16.316-1.001,30-12.889,30-30C769,647.405,755.339,631.998,739,633z"/>
</svg>
