<?xml version="1.0" encoding="utf-8"?>
<!-- Generator: Adobe Illustrator 17.0.0, SVG Export Plug-In . SVG Version: 6.00 Build 0)  -->
<!DOCTYPE svg PUBLIC "-//W3C//DTD SVG 1.1//EN" "http://www.w3.org/Graphics/SVG/1.1/DTD/svg11.dtd">
<svg version="1.1" id="Layer_1" xmlns="http://www.w3.org/2000/svg" xmlns:xlink="http://www.w3.org/1999/xlink" x="0px" y="0px"
	 width="1000px" height="1000px" viewBox="0 0 1000 1000" enable-background="new 0 0 1000 1000" xml:space="preserve">
<path d="M922.702,743.235c-17.569-20.822-40.842-33.435-65.494-43.619c4.246-4.467,8.661-8.769,13.317-12.818
	c1.143-0.994,2.312-1.958,3.485-2.916c0.468-0.362,1.098-0.848,1.453-1.109c3.01-2.215,6.148-4.25,9.359-6.161
	c2.965-1.765,6.042-3.33,9.177-4.768c0.703-0.271,1.408-0.534,2.115-0.792c1.739-0.635,3.51-1.18,5.286-1.7
	c10.3-3.017,16.646-13.758,13.763-24.239c-2.812-10.223-13.935-16.781-24.239-13.763c-29.966,8.777-53.391,29.955-73.09,53.384
	c-6.268-2.32-12.477-4.681-18.563-7.168c-6.783-2.971-13.437-6.213-19.846-9.939c-3.358-1.952-6.604-4.088-9.758-6.355
	c-0.519-0.432-1.041-0.861-1.555-1.3c-1.606-1.374-3.139-2.83-4.642-4.315c-10.184-10.058-26.987-10.169-37.156,0
	c-10.075,10.075-10.186,27.096,0,37.156c16.57,16.365,36.903,26.725,58.206,35.305c-0.814,1.092-1.626,2.185-2.442,3.276
	c-1.207,1.613-2.42,3.22-3.637,4.826c-0.363,0.479-1.409,1.839-2.13,2.777c-2.129,2.728-4.288,5.434-6.482,8.11
	c-4.744,5.785-9.711,11.389-14.985,16.697c-7.567,7.615-7.61,20.257,0,27.867c7.574,7.574,20.299,7.616,27.867,0
	c11.194-11.266,20.911-23.882,30.487-36.519c3.217-4.245,6.391-8.523,9.561-12.803c5.211,1.929,10.383,3.899,15.473,5.972
	c9.156,3.996,18.097,8.447,26.565,13.77c2.272,1.428,4.485,2.948,6.667,4.51c0.11,0.079,0.232,0.167,0.359,0.26
	c0.516,0.425,1.031,0.853,1.543,1.284c4.415,3.713,8.462,7.842,12.18,12.248c9.244,10.956,27.674,9.482,37.156,0
	C933.464,769.63,931.929,754.17,922.702,743.235z"/>
</svg>
