<?xml version="1.0" encoding="utf-8"?>
<!-- Generator: Adobe Illustrator 17.0.0, SVG Export Plug-In . SVG Version: 6.00 Build 0)  -->
<!DOCTYPE svg PUBLIC "-//W3C//DTD SVG 1.1//EN" "http://www.w3.org/Graphics/SVG/1.1/DTD/svg11.dtd">
<svg version="1.1" id="Layer_1" xmlns="http://www.w3.org/2000/svg" xmlns:xlink="http://www.w3.org/1999/xlink" x="0px" y="0px"
	 width="1000px" height="1000px" viewBox="0 0 1000 1000" enable-background="new 0 0 1000 1000" xml:space="preserve">
<path fill="#800000018000000180000001" d="M907.846,647.231c-11.454,0.039-22.958,0.897-34.375,2.37
	c-6.366-40.913-16.7-82.287-39.502-117.117c-19.494-29.777-48.558-53.508-84.141-60.35c-35.066-6.743-70.814-0.152-103.696,12.784
	c-39.133,15.395-75.041,37.094-109.1,61.593c-10.809,7.775-21.372,15.88-31.886,24.047c-1.928,1.498-3.846,3.008-5.762,4.521
	c-1.57,1.043-3.145,2.08-4.722,3.112c-7.886,5.161-15.855,10.194-23.877,15.14c-22.465,13.852-45.393,26.963-68.747,39.256
	c-20.988,11.047-42.364,21.376-64.172,30.706c-31.625,13.121-64.53,24.406-98.471,29.474c-12.159,1.389-24.445,1.826-36.627,0.608
	c-6.081-1.039-12.061-2.559-17.851-4.683c-2.964-1.43-5.839-3.027-8.612-4.817c-0.533-0.344-1.049-0.713-1.57-1.074
	c-1.349-1.163-2.665-2.364-3.929-3.618c-1.318-1.308-2.559-2.69-3.767-4.099c-0.301-0.436-0.601-0.872-0.895-1.312
	c-2.274-3.397-4.241-6.989-5.982-10.685c-2.903-7.757-4.887-15.808-6.227-23.981c-0.615-5.6-0.978-11.218-1.118-16.844
	c8.076,0.274,16.175,0.355,24.262,0.355c16.354,0.001,30-13.647,30-30c0-16.354-13.646-29.999-30-30
	c-17.181-0.001-34.37-0.168-51.448-2.127c-10.56-1.68-20.935-4.181-30.932-7.982c-0.829-0.387-1.656-0.776-2.479-1.18
	c-14.684-7.198-32.339-4.101-41.046,10.763c-7.804,13.322-3.914,33.851,10.763,41.046c10.012,4.908,20.309,8.589,30.803,11.351
	c-0.313,30.315,4.408,61.906,20.459,87.804c15.565,25.114,41.092,42.307,69.947,48.276c30.405,6.29,61.492,3.073,91.563-3.525
	c32.146-7.054,62.929-18.926,93.131-31.792c50.511-21.518,98.915-48.273,145.267-77.632c5.788-3.666,11.541-7.39,17.245-11.186
	c5.233-3.482,10.093-7.87,15.059-11.761c0.437-0.342,0.875-0.683,1.313-1.025c1.85-1.419,3.703-2.832,5.563-4.238
	c7.752-5.86,15.613-11.577,23.57-17.156c26.468-18.561,54.294-35.628,83.978-48.569c15.162-6.126,30.844-11.049,46.998-13.666
	c8.498-0.895,17.044-1.061,25.553-0.27c5.913,1.04,11.71,2.576,17.343,4.656c4.945,2.353,9.67,5.114,14.161,8.274
	c0.003,0.002,0.007,0.005,0.01,0.008c0.863,0.723,1.718,1.455,2.561,2.201c2.882,2.55,5.588,5.292,8.184,8.13
	c1.244,1.359,2.439,2.762,3.618,4.177c0.064,0.077,0.125,0.157,0.189,0.234c2.273,3.112,4.399,6.332,6.422,9.611
	c4.12,6.676,7.68,13.686,10.876,20.849c9.69,24.086,15.564,49.556,19.565,75.188c-7.965,3.058-15.628,6.767-22.611,11.329
	c-13.663,8.925-19.337,26.408-10.763,41.046c7.952,13.575,27.34,19.716,41.046,10.763c3.433-2.242,7.027-4.165,10.729-5.89
	c14.463-5.559,29.729-8.938,45.043-11.216c9.656-1.146,19.357-1.842,29.086-1.875c16.353-0.056,30-13.604,30-30
	C937.846,660.919,924.2,647.175,907.846,647.231z M499.578,574.946C502.052,573.035,500.912,574.038,499.578,574.946
	L499.578,574.946z M777.662,556.339c0.165,0.221,0.323,0.447,0.486,0.669C773.965,551.722,776.385,554.634,777.662,556.339z"/>
</svg>
