<?xml version="1.0" encoding="utf-8"?>
<!-- Generator: Adobe Illustrator 17.0.0, SVG Export Plug-In . SVG Version: 6.00 Build 0)  -->
<!DOCTYPE svg PUBLIC "-//W3C//DTD SVG 1.1//EN" "http://www.w3.org/Graphics/SVG/1.1/DTD/svg11.dtd">
<svg version="1.1" id="Layer_1" xmlns="http://www.w3.org/2000/svg" xmlns:xlink="http://www.w3.org/1999/xlink" x="0px" y="0px"
	 width="1000px" height="1000px" viewBox="0 0 1000 1000" enable-background="new 0 0 1000 1000" xml:space="preserve">
<path fill="#800000018000000180000001" d="M770.249,519.935c-6.568-15.172-19.55-24.97-34.452-31.005
	c-12.841-5.2-28.092-5.411-41.676-3.758c-17.108,2.081-33.487,6.32-49.612,12.382c-28.466,10.702-55.715,24.918-80.974,41.91
	c2.62-7.957,5.125-15.952,7.416-24.013c5.103-17.957,10.022-37.432,9.055-56.23c-1.178-22.88-15.2-41.717-33.701-54.354
	c-35.931-24.544-84.104-10.251-114.484,15.98c-16.085,13.888-27.904,33.332-33.443,53.786c-6.182,22.829-3.161,44.895,6.505,66.151
	c3.674,8.079,8.426,15.697,13.777,22.93c-25.969-5.216-52.748-7.434-78.9-6.135c-41.885,2.08-95.336,14.945-113.572,57.852
	c-2.412,5.676-3.911,10.601-2.2,16.82c1.493,5.427,5.149,10.226,10.031,13.045c40.845,23.583,88.178,33.041,135.04,29.438
	c33.603-2.583,66.273-10.972,97.369-23.549c-10.74,17.079-18.753,36.025-24.069,55.051c-9.098,32.565-10.466,68.782,4.464,99.805
	c8.665,18.005,24.103,30.202,42.169,37.749c20.556,8.588,44.883,6.526,66.116,2.142c7.023-1.45,13.712-8.29,15.246-15.246
	c6.387-28.972,10.792-58.757,9.048-88.485c-1.89-32.207-10.904-62.439-23.676-91.881c-0.274-0.632-0.572-1.252-0.862-1.876
	c12.556-1.588,25.13-3.04,37.685-4.64c35.159-4.479,70.714-9.28,104.671-19.786c15.204-4.704,30.567-10.634,44.018-19.242
	c12.048-7.711,24.066-18.329,29.764-31.779C778.593,555.075,777.961,537.751,770.249,519.935z M732.978,544.012
	c0.007,0.073,0.007,0.147,0.013,0.22C732.328,539.878,732.827,542.424,732.978,544.012z M694.916,528.738
	C692.296,529.104,693.581,528.911,694.916,528.738L694.916,528.738z M536.265,458.085c-0.03-0.187-0.058-0.362-0.084-0.525
	c0.01,0.017,0.021,0.036,0.03,0.051C536.231,457.773,536.249,457.932,536.265,458.085z M536.135,457.04
	c-0.021-0.062-0.042-0.123-0.067-0.194C535.706,454.526,535.939,455.651,536.135,457.04z M509.994,436.425
	C510.849,436.532,511.312,436.605,509.994,436.425L509.994,436.425z M495.623,436.347c0.089-0.01,0.179-0.015,0.269-0.024
	C490.681,437.146,494.05,436.515,495.623,436.347z M482.367,439.848C482.829,439.651,482.995,439.584,482.367,439.848
	L482.367,439.848z M443.453,477.101C444.038,475.654,445.02,473.49,443.453,477.101L443.453,477.101z M438.84,494.157
	c0.019-0.209,0.047-0.47,0.079-0.747c0.091-0.522,0.186-1.043,0.282-1.563c0.484-2.634,1.149-5.232,1.884-7.806
	c0.621-2.175,1.374-4.31,2.168-6.428c0,0,0,0,0-0.001c0.304-0.655,0.614-1.307,0.928-1.956c2.083-4.308,4.602-8.394,7.353-12.304
	c0.084-0.12,0.188-0.263,0.297-0.412c0.33-0.401,0.652-0.808,0.986-1.206c1.395-1.667,2.877-3.258,4.384-4.822
	c1.5-1.556,3.079-3.033,4.682-4.482c0.798-0.721,1.62-1.415,2.442-2.109c0.149-0.126,0.281-0.238,0.403-0.341
	c3.211-2.363,6.594-4.486,10.074-6.428c1.826-1.019,3.704-1.944,5.595-2.835c0.071-0.034,0.15-0.07,0.231-0.107
	c0.731-0.279,1.465-0.551,2.202-0.817c3.814-1.377,7.744-2.412,11.716-3.211c0.483-0.097,0.968-0.185,1.454-0.268
	c2.151-0.214,4.313-0.298,6.474-0.317c1.93-0.017,3.858,0.09,5.78,0.242c0.294,0.054,0.589,0.108,0.883,0.164
	c1.88,0.357,3.732,0.849,5.567,1.387c0.918,0.269,1.822,0.584,2.724,0.899c0.03,0.01,0.053,0.018,0.082,0.028
	c2.267,1.076,4.446,2.326,6.535,3.716c0.712,0.605,2.816,2.283,3.593,3.023c1.014,0.965,1.973,1.985,2.902,3.032
	c0.395,0.581,2.479,3.293,3.109,4.28c0.625,0.98,1.8,3.443,2.365,4.493c0.078,0.317,0.153,0.635,0.226,0.953
	c0.024,0.103,0.041,0.208,0.063,0.312c0.269,3.424,0.159,6.876-0.066,10.298c-0.1,1.525-0.257,3.046-0.428,4.565
	c-0.182,1.182-0.377,2.362-0.582,3.54c-6.574,37.784-22.132,73.51-34.118,109.776c-7.617-7.039-15.24-14.071-22.621-21.357
	c-7.267-7.173-14.275-14.612-20.777-22.489c-0.615-0.745-1.216-1.501-1.819-2.257c-1.347-1.793-2.642-3.624-3.911-5.472
	c-2.749-4.002-5.24-8.174-7.491-12.474c-0.482-0.92-0.939-1.851-1.384-2.789c-0.171-0.508-1.486-3.698-1.862-4.811
	c-0.67-1.982-1.217-4.002-1.715-6.033c-0.247-1.008-0.449-2.027-0.651-3.045c-0.025-0.125-0.047-0.233-0.069-0.343
	C438.446,501.819,438.493,497.972,438.84,494.157z M393.395,603.633C393.496,603.647,393.506,603.648,393.395,603.633
	L393.395,603.633z M394.645,627.468c-4.644,0.933-9.318,1.715-14.003,2.415c-1.218,0.152-2.437,0.299-3.657,0.438
	c-2.638,0.3-5.283,0.537-7.928,0.757c-10.12,0.841-20.29,0.984-30.433,0.555c-4.844-0.205-9.678-0.616-14.497-1.135
	c-0.174-0.019-0.348-0.042-0.522-0.062c-0.414-0.061-2.671-0.354-3.338-0.457c-2.69-0.414-5.367-0.911-8.039-1.429
	c-10.31-1.999-20.427-4.91-30.294-8.493c-1.224-0.444-2.439-0.912-3.65-1.389c0.198-0.146,0.38-0.276,0.533-0.381
	c1.606-1.104,3.268-2.122,4.948-3.108c2.733-1.604,5.573-3.018,8.456-4.333c0.442-0.172,0.882-0.349,1.325-0.519
	c1.992-0.762,4.013-1.447,6.042-2.105c7.645-2.478,15.528-4.186,23.455-5.462c0.566-0.091,1.135-0.172,1.702-0.256
	c1.875-0.226,3.753-0.42,5.633-0.598c4.527-0.429,9.069-0.689,13.612-0.856c9.011-0.332,18.038-0.135,27.037,0.402
	c4.395,0.262,8.782,0.642,13.162,1.088c2.196,0.224,4.389,0.481,6.58,0.749c0.02,0.002,0.042,0.005,0.063,0.008
	c0.96,0.137,1.92,0.272,2.878,0.415c9,1.344,17.937,3.096,26.795,5.173c6.864,1.609,13.667,3.474,20.4,5.565
	c-5.781,2.095-11.616,4.043-17.499,5.829C413.945,623.155,404.336,625.521,394.645,627.468z M494.068,797.352
	C493.096,796.63,492.287,795.972,494.068,797.352L494.068,797.352z M503.224,802.756
	C506.39,804.044,504.572,803.357,503.224,802.756L503.224,802.756z M512.375,805.361
	C511.755,805.282,511.499,805.243,512.375,805.361L512.375,805.361z M520.188,805.959c-1.915-0.049-3.826-0.189-5.733-0.362
	c-0.247-0.043-0.496-0.078-0.743-0.121c-3.684-0.648-7.299-1.644-10.822-2.895c-0.073-0.026-0.145-0.057-0.218-0.084
	c-1.357-0.644-2.678-1.361-3.979-2.109c-1.201-0.69-2.357-1.453-3.498-2.238c-0.232-0.201-0.465-0.4-0.695-0.603
	c-1.838-1.616-3.528-3.392-5.119-5.251c-0.243-0.351-0.491-0.698-0.729-1.052c-0.986-1.462-1.878-2.984-2.733-4.524
	c-0.664-1.196-1.267-2.425-1.851-3.663c-0.03-0.081-0.058-0.155-0.091-0.244c-1.222-3.239-2.17-6.576-2.969-9.942
	c-0.379-1.599-0.693-3.212-0.987-4.828c-0.078-0.431-0.143-0.865-0.213-1.298c-0.353-3.283-0.542-6.583-0.621-9.883
	c-0.086-3.567,0.017-7.137,0.218-10.699c0.103-1.82,0.257-3.636,0.428-5.451c0.084-0.892,0.184-1.783,0.284-2.674
	c1.119-7.448,2.797-14.808,4.86-22.049c0.972-3.411,2.068-6.785,3.232-10.135c0.637-1.835,1.317-3.654,2.01-5.468
	c0.251-0.656,0.803-2.01,1.237-3.072c2.817-6.42,6.005-12.675,9.53-18.734c1.755-3.017,3.625-5.965,5.563-8.867
	c1.045-1.564,2.13-3.101,3.23-4.628c0.332-0.462,0.674-0.916,1.014-1.372c0.549-0.689,1.115-1.364,1.678-2.041
	c1.358,2.15,2.616,4.363,3.742,6.644c0.36,0.73,0.688,1.476,1.015,2.222c0.121,0.276,1.11,2.582,1.464,3.384
	c1.258,3.06,2.461,6.142,3.623,9.24c2.734,7.292,5.086,14.722,7.141,22.232c1.79,6.542,3.217,13.179,4.399,19.856
	c0.288,1.629,0.538,3.264,0.788,4.899c0.002,0.015,0.004,0.027,0.006,0.042c0.023,0.193,0.048,0.405,0.079,0.663
	c0.456,3.771,0.766,7.559,1.017,11.349c0.868,13.085,0.359,26.229-0.946,39.266c-0.168,1.677-0.365,3.351-0.562,5.024
	c-0.047,0.397-0.083,0.71-0.112,0.963c-0.482,3.444-1.044,6.876-1.628,10.304c-0.452,2.656-0.948,5.303-1.46,7.948
	C527.426,805.972,523.805,806.051,520.188,805.959z M702.984,575.757c-0.09,0.037-0.181,0.071-0.271,0.108
	C707.33,573.869,704.393,575.18,702.984,575.757z M724.212,563.396c-0.371,0.334-0.754,0.655-1.135,0.977
	c-0.673,0.507-1.461,1.094-1.965,1.441c-2.802,1.931-5.738,3.662-8.72,5.296c-2.934,1.607-5.951,3.061-8.997,4.443
	c-0.318,0.144-0.64,0.282-0.96,0.423c-1.764,0.713-3.541,1.393-5.324,2.056c-15.335,5.695-31.313,9.611-47.314,12.904
	c-16.616,3.419-33.396,6.005-50.201,8.301c-0.701,0.092-1.403,0.185-2.104,0.277c-1.975,0.259-3.951,0.512-5.927,0.763
	c-4.172,0.531-8.346,1.047-12.521,1.557c-7.468,0.914-14.939,1.804-22.405,2.732c-2.24,0.278-4.495,0.544-6.756,0.809
	c0.298-0.289,0.591-0.583,0.89-0.87c5.013-4.8,10.312-9.297,15.727-13.634c0.476-0.381,0.955-0.757,1.434-1.134
	c1.198-0.911,2.399-1.817,3.607-2.713c3.351-2.484,6.756-4.893,10.19-7.26c14.069-9.699,28.798-18.453,43.97-26.31
	c7.425-3.845,14.99-7.42,22.663-10.742c0.71-0.291,1.42-0.581,2.131-0.869c1.864-0.753,3.74-1.477,5.619-2.191
	c3.983-1.513,8.007-2.915,12.059-4.231c7.343-2.385,14.818-4.372,22.394-5.867c1.71-0.338,3.428-0.632,5.149-0.909
	c0.042-0.007,0.085-0.012,0.128-0.019c3.446-0.393,6.911-0.602,10.378-0.655c2.759-0.042,5.517,0.081,8.265,0.325
	c1.562,0.277,3.107,0.642,4.64,1.049c1.109,0.295,2.2,0.651,3.284,1.028c0.995,0.497,1.966,1.039,2.919,1.612
	c0.378,0.227,0.743,0.475,1.11,0.719c0.829,0.754,1.612,1.556,2.366,2.385c0.33,0.455,0.656,0.921,0.886,1.29
	c0.635,1.017,1.191,2.08,1.723,3.154c0.079,0.226,0.166,0.448,0.243,0.674c0.505,1.47,0.911,2.972,1.288,4.479
	c0.035,0.14,0.064,0.281,0.097,0.421c0.075,1.232,0.104,2.467,0.079,3.7c-0.006,0.31-0.03,0.69-0.061,1.087
	c-0.109,0.493-0.22,0.985-0.343,1.475c-0.208,0.83-0.468,1.645-0.744,2.455c-0.101,0.195-0.2,0.392-0.302,0.586
	c-0.597,1.138-1.275,2.232-1.975,3.309c-0.11,0.169-0.231,0.331-0.345,0.497C727.757,560.055,726.02,561.77,724.212,563.396z"/>
</svg>
