<?xml version="1.0" encoding="utf-8"?>
<!-- Generator: Adobe Illustrator 17.0.0, SVG Export Plug-In . SVG Version: 6.00 Build 0)  -->
<!DOCTYPE svg PUBLIC "-//W3C//DTD SVG 1.1//EN" "http://www.w3.org/Graphics/SVG/1.1/DTD/svg11.dtd">
<svg version="1.1" id="Layer_1" xmlns="http://www.w3.org/2000/svg" xmlns:xlink="http://www.w3.org/1999/xlink" x="0px" y="0px"
	 width="1000px" height="1000px" viewBox="0 0 1000 1000" enable-background="new 0 0 1000 1000" xml:space="preserve">
<path fill="#800000018000000180000001" d="M314.339,581.381c115.058-0.069,230.704-12.292,345.304,3.079
	c-2.658-0.357-5.317-0.714-7.975-1.072c8.733,1.195,17.442,2.545,26.125,4.063c8.244,1.442,15.658,1.345,23.117-3.024
	c6.706-3.928,11.724-10.43,13.787-17.929c4.019-14.613-4.828-34.083-20.953-36.904c-125.719-21.991-252.736-8.29-379.404-8.215
	c-16.353,0.01-30,13.639-30,30C284.339,567.727,297.986,581.391,314.339,581.381L314.339,581.381z"/>
<path fill="#800000018000000180000001" d="M386.6,694.595c18.773-7.407,39.943-9.902,59.792-12.601
	c-2.658,0.357-5.317,0.714-7.975,1.072c28.531-3.831,57.273-6.167,86.041-7.165c27.128-0.941,54.574-0.85,81.521,2.764
	c-2.658-0.357-5.317-0.714-7.975-1.072c5.201,0.72,10.374,1.593,15.504,2.716c15.96,3.494,32.398-4.573,36.904-20.953
	c4.16-15.122-4.976-33.406-20.953-36.904c-41.625-9.113-85.731-7.992-128.004-5.459c-23.77,1.424-47.421,3.937-71.012,7.145
	c-16.352,2.223-32.776,4.782-48.739,9.046c-3.739,0.999-7.451,2.134-11.053,3.555c-7.591,2.995-13.657,6.495-17.929,13.787
	c-4.059,6.929-5.154,15.374-3.024,23.117C353.683,688.135,371.366,700.605,386.6,694.595L386.6,694.595z"/>
<path fill="#800000018000000180000001" d="M486.624,777.285c0.851-0.425,1.716-0.82,2.594-1.186
	c-2.389,1.008-4.778,2.016-7.166,3.024c4.302-1.713,8.699-2.81,13.273-3.503c-2.658,0.357-5.317,0.714-7.975,1.072
	c7.537-0.952,15.027-0.749,22.55,0.241c-2.658-0.357-5.317-0.714-7.975-1.072c6.379,0.963,12.589,2.463,18.726,4.449
	c15.56,5.035,32.713-5.72,36.904-20.953c4.482-16.294-5.409-31.874-20.953-36.904c-26.406-8.544-54.96-9.077-80.26,3.024
	c-14.748,7.055-18.506,27.826-10.763,41.046C454.344,781.486,471.872,784.341,486.624,777.285L486.624,777.285z"/>
</svg>
