<?xml version="1.0" encoding="utf-8"?>
<!-- Generator: Adobe Illustrator 17.0.0, SVG Export Plug-In . SVG Version: 6.00 Build 0)  -->
<!DOCTYPE svg PUBLIC "-//W3C//DTD SVG 1.1//EN" "http://www.w3.org/Graphics/SVG/1.1/DTD/svg11.dtd">
<svg version="1.1" id="Layer_1" xmlns="http://www.w3.org/2000/svg" xmlns:xlink="http://www.w3.org/1999/xlink" x="0px" y="0px"
	 width="1000px" height="1000px" viewBox="0 0 1000 1000" enable-background="new 0 0 1000 1000" xml:space="preserve">
<path fill="#800000018000000180000001" d="M797.904,443.013c-4.239-7.237-10.34-10.884-17.929-13.787
	c-26.764-10.237-55.439-15.638-83.628-20.209c-40.564-6.578-81.532-10.767-122.54-13.28c-84.252-5.162-169.826-4.043-253.256,9.738
	c-36.762,6.072-75.556,15.131-107.694,34.775c-1.408,0.861-2.722,1.825-3.947,2.87c-4.282,2.413-8.029,5.981-10.816,10.739
	c-7.878,13.448-3.825,33.681,10.763,41.046c17.714,8.943,34.172,20.242,49.959,32.211c0.294,0.231,0.59,0.461,0.884,0.693
	c2.164,1.701,4.305,3.43,6.441,5.166c4.165,3.385,8.261,6.855,12.315,10.372c6.985,6.059,13.776,12.343,20.328,18.867
	c11.583,11.533,30.85,11.577,42.426,0c11.539-11.539,11.583-30.893,0-42.426c-15.72-15.653-32.851-29.662-50.41-43.184
	c-1.162-0.895-2.329-1.784-3.5-2.67c21.288-6.085,43.288-9.976,65.108-13.031c80.942-10.478,163.663-9.826,244.9-3.536
	c21.417,1.658,42.795,3.847,64.093,6.647c10.28,1.412,20.631,2.926,30.965,4.677c-24.805,20.371-43.53,47.136-49.299,80.335
	c-1.433,8.249-1.349,15.652,3.024,23.117c3.928,6.706,10.43,11.724,17.929,13.787c14.599,4.016,34.101-4.825,36.904-20.953
	c1.134-6.526,2.848-12.874,5.148-19.059c2.798-5.907,6.113-11.516,9.916-16.852c1.42-1.729,2.918-3.392,4.433-5.037
	c2.786-3.024,5.773-5.858,8.839-8.595c1.329-1.186,2.699-2.325,4.074-3.456c0.212-0.153,0.446-0.321,0.728-0.527
	c3.432-2.5,7.003-4.805,10.625-7.017c6.359-3.882,13.015-7.262,19.817-10.299c3.784-1.503,7.605-2.902,11.466-4.204
	c3.474-1.171,6.669-2.851,9.489-4.933c7.391-4.058,13.334-11.12,15.464-18.866C803.058,458.386,801.963,449.941,797.904,443.013z"/>
</svg>
