<?xml version="1.0" encoding="utf-8"?>
<!-- Generator: Adobe Illustrator 17.0.0, SVG Export Plug-In . SVG Version: 6.00 Build 0)  -->
<!DOCTYPE svg PUBLIC "-//W3C//DTD SVG 1.1//EN" "http://www.w3.org/Graphics/SVG/1.1/DTD/svg11.dtd">
<svg version="1.1" id="Layer_1" xmlns="http://www.w3.org/2000/svg" xmlns:xlink="http://www.w3.org/1999/xlink" x="0px" y="0px"
	 width="1000px" height="1000px" viewBox="0 0 1000 1000" enable-background="new 0 0 1000 1000" xml:space="preserve">
<path fill="#800000018000000180000001" d="M882.134,447.858c-3.508-5.988-10.7-12.774-17.929-13.787
	c-13.474-1.887-26.874-3.414-40.492-3.497c-12.774-0.077-25.352,1.363-37.984,3.138c-21.641,3.04-42.029,10.2-61.913,19.082
	c-37.113,16.578-69.323,43.156-99.146,70.331c-26.612,24.25-51.805,50.022-79,73.638c-6.556,5.693-13.243,11.233-20.064,16.606
	c-1.9,1.444-3.817,2.865-5.742,4.276c-3.873,2.839-7.81,5.589-11.79,8.276c-13.251,8.945-27.239,17.101-41.879,23.599
	c-22.32,8.852-46.064,14.091-69.793,17.53c-35.15,4.433-70.987,4.981-106.168,0.623c-18.65-2.775-37.159-7.065-54.722-13.973
	c-4.805-2.159-9.509-4.527-14.066-7.179c-2.765-1.609-5.455-3.345-8.082-5.17c-0.358-0.248-0.702-0.516-1.056-0.77
	c-0.257-0.216-0.519-0.426-0.775-0.644c-2.113-1.794-4.125-3.704-6.062-5.685c-1.014-1.037-2.836-3.215-4.05-4.666
	c-1.719-2.568-3.257-5.255-4.625-8.027c-1.15-3.259-2.052-6.59-2.716-9.982c-0.357-4.658-0.297-9.326,0.116-13.982
	c1.466-8.197,3.882-16.178,6.91-23.938c5.19-11.528,11.539-22.482,18.529-33.016c1.463-2.205,2.519-4.564,3.214-7.002
	c15.702-0.09,31.409,0.815,46.999,2.713c9.55,1.431,19.026,3.26,28.408,5.575c15.865,3.915,32.483-4.883,36.904-20.953
	c4.247-15.44-5.081-32.987-20.953-36.904c-57.729-14.245-120.721-14.245-178.45,0c-15.872,3.917-25.2,21.464-20.953,36.904
	c4.213,15.315,19.504,24.016,34.663,21.412c-10.479,21.941-17.326,45.862-15.366,69.751c1.334,16.257,5.629,31.841,14.277,45.813
	c8.705,14.064,20.253,24.759,33.524,34.371c23.698,17.164,53.744,26.32,82.233,31.541c33.336,6.109,67.379,7.919,101.192,6.037
	c32.103-1.788,64.596-6.33,95.527-15.284c35.093-10.158,67.062-28.161,96.032-50.192c33.734-25.654,63.8-55.222,94.539-84.287
	c14.285-13.507,28.812-26.777,44.1-39.149c1.469-1.189,2.954-2.359,4.439-3.527c0.458-0.346,0.915-0.695,1.374-1.04
	c3.985-2.997,8.043-5.896,12.152-8.722c7.842-5.393,15.952-10.393,24.295-14.972c5.569-3.056,11.273-5.859,17.075-8.444
	c14.505-5.806,29.551-9.994,44.989-12.405c18.297-2.002,36.719-1.528,54.975,0.925c-1.508-0.203-3.016-0.405-4.524-0.608
	c7.521,0.92,14.06,0.818,21.074-3.291c6.706-3.928,11.724-10.43,13.787-17.929C887.289,463.232,886.193,454.787,882.134,447.858z
	 M213.703,641.739c-0.145-0.116-0.285-0.239-0.429-0.356C217.862,644.878,215.325,643.038,213.703,641.739z"/>
</svg>
